<svg xmlns="http://www.w3.org/2000/svg" width="1120" height="760" viewBox="0 0 1120 760" role="img" aria-labelledby="title desc"><title id="title">No continuation improved saturated SFT</title><desc id="desc">Forest chart of alignment-score and retained-tool-utility percentage-point deltas for five continuation methods. Every seed is shown at its exact x value.</desc><rect width="1120" height="760" rx="24" fill="#060a14"/><rect x="20" y="20" width="1080" height="720" rx="20" fill="#0a1222" stroke="#20304f"/><style>text{font-family:'DejaVu Sans','Segoe UI',sans-serif;fill:#edf4ff}.title{font-size:31px;font-weight:760}.sub{font-size:17px;fill:#aebbd2}.axis{font-size:17px;fill:#aebbd2}.label{font-size:17px;font-weight:650}.value{font-size:17px;font-weight:760}.small{font-size:16px;fill:#b9c5d8}.header{font-size:16px;font-weight:700;fill:#dce7f8}</style><text class="title" x="48" y="66">No continuation improved saturated SFT</text><text class="sub" x="48" y="98">48 paired sandbox tasks per seed · mean marks plus all three measured seeds · zero = starting SFT</text><text class="header" x="48" y="135">Continuation method</text><text class="header" data-role="axis-title" x="370" y="135">delta from the same-seed SFT checkpoint (percentage points)</text><line x1="370.0" y1="160" x2="370.0" y2="612" stroke="#233553" stroke-width="1" data-axis-domain="-40,5"/><text class="axis" x="370.0" y="640" text-anchor="middle">-40</text><line x1="518.9" y1="160" x2="518.9" y2="612" stroke="#233553" stroke-width="1" data-axis-domain="-40,5"/><text class="axis" x="518.9" y="640" text-anchor="middle">-30</text><line x1="667.8" y1="160" x2="667.8" y2="612" stroke="#233553" stroke-width="1" data-axis-domain="-40,5"/><text class="axis" x="667.8" y="640" text-anchor="middle">-20</text><line x1="816.7" y1="160" x2="816.7" y2="612" stroke="#233553" stroke-width="1" data-axis-domain="-40,5"/><text class="axis" x="816.7" y="640" text-anchor="middle">-10</text><line x1="965.6" y1="160" x2="965.6" y2="612" stroke="#f4f7fb" stroke-width="2.5" data-axis-domain="-40,5"/><text class="axis" x="965.6" y="640" text-anchor="middle">+0</text><line x1="1040.0" y1="160" x2="1040.0" y2="612" stroke="#233553" stroke-width="1" data-axis-domain="-40,5"/><text class="axis" x="1040.0" y="640" text-anchor="middle">+5</text><text class="small" data-role="chart-label" x="955.6" y="180" text-anchor="end">zero baseline = same-seed SFT</text><text class="label" data-role="chart-label" x="48" y="214">continued SFT</text><text class="small" data-role="chart-label" x="48" y="238">A -5.6  (0.0 / 0.0 / -16.7)</text><text class="small" data-role="chart-label" x="48" y="260">U -11.1  (0.0 / 0.0 / -33.3)</text><line x1="370.0" y1="232" x2="1040.0" y2="232" stroke="#182a46"/><circle cx="965.6" cy="220.0" r="4.5" data-encoding="seed-point" data-seed="1234" data-value="0" fill="#0072B2" stroke="#07111f" stroke-width="1.5"/><polygon points="965.6,215.0 970.6,220.0 965.6,225.0 960.6,220.0" data-encoding="seed-point" data-seed="20260727" data-value="0" fill="#0072B2" stroke="#07111f" stroke-width="1.5"/><path d="M712.9,215.5 L721.9,224.5 M721.9,215.5 L712.9,224.5" data-encoding="seed-point" data-seed="20260801" data-value="-16.66666667" fill="none" stroke="#0072B2" stroke-width="3"/><circle cx="965.6" cy="244.0" r="4.5" data-encoding="seed-point" data-seed="1234" data-value="0" fill="#0072B2" stroke="#07111f" stroke-width="1.5"/><polygon points="965.6,239.0 970.6,244.0 965.6,249.0 960.6,244.0" data-encoding="seed-point" data-seed="20260727" data-value="0" fill="#0072B2" stroke="#07111f" stroke-width="1.5"/><path d="M464.8,239.5 L473.8,248.5 M473.8,239.5 L464.8,248.5" data-encoding="seed-point" data-seed="20260801" data-value="-33.33333333" fill="none" stroke="#0072B2" stroke-width="3"/><circle cx="882.8" cy="220" r="8" fill="none" stroke="#0072B2" stroke-width="3" data-value="-5.555555556"/><rect x="792.1" y="236.0" width="16" height="16" fill="none" stroke="#0072B2" stroke-width="3" data-value="-11.11111111"/><text class="label" data-role="chart-label" x="48" y="298">DPO</text><text class="small" data-role="chart-label" x="48" y="322">A 0.0  (0.0 / 0.0 / 0.0)</text><text class="small" data-role="chart-label" x="48" y="344">U 0.0  (0.0 / 0.0 / 0.0)</text><line x1="370.0" y1="316" x2="1040.0" y2="316" stroke="#182a46"/><circle cx="965.6" cy="304.0" r="4.5" data-encoding="seed-point" data-seed="1234" data-value="0" fill="#CC79A7" stroke="#07111f" stroke-width="1.5"/><polygon points="965.6,299.0 970.6,304.0 965.6,309.0 960.6,304.0" data-encoding="seed-point" data-seed="20260727" data-value="0" fill="#CC79A7" stroke="#07111f" stroke-width="1.5"/><path d="M961.1,299.5 L970.1,308.5 M970.1,299.5 L961.1,308.5" data-encoding="seed-point" data-seed="20260801" data-value="0" fill="none" stroke="#CC79A7" stroke-width="3"/><circle cx="965.6" cy="328.0" r="4.5" data-encoding="seed-point" data-seed="1234" data-value="0" fill="#CC79A7" stroke="#07111f" stroke-width="1.5"/><polygon points="965.6,323.0 970.6,328.0 965.6,333.0 960.6,328.0" data-encoding="seed-point" data-seed="20260727" data-value="0" fill="#CC79A7" stroke="#07111f" stroke-width="1.5"/><path d="M961.1,323.5 L970.1,332.5 M970.1,323.5 L961.1,332.5" data-encoding="seed-point" data-seed="20260801" data-value="0" fill="none" stroke="#CC79A7" stroke-width="3"/><circle cx="965.6" cy="304" r="8" fill="none" stroke="#CC79A7" stroke-width="3" data-value="0"/><rect x="957.6" y="320.0" width="16" height="16" fill="none" stroke="#CC79A7" stroke-width="3" data-value="0"/><text class="label" data-role="chart-label" x="48" y="382">offline soft distillation</text><text class="small" data-role="chart-label" x="48" y="406">A 0.0  (0.0 / 0.0 / 0.0)</text><text class="small" data-role="chart-label" x="48" y="428">U 0.0  (0.0 / 0.0 / 0.0)</text><line x1="370.0" y1="400" x2="1040.0" y2="400" stroke="#182a46"/><circle cx="965.6" cy="388.0" r="4.5" data-encoding="seed-point" data-seed="1234" data-value="0" fill="#E69F00" stroke="#07111f" stroke-width="1.5"/><polygon points="965.6,383.0 970.6,388.0 965.6,393.0 960.6,388.0" data-encoding="seed-point" data-seed="20260727" data-value="0" fill="#E69F00" stroke="#07111f" stroke-width="1.5"/><path d="M961.1,383.5 L970.1,392.5 M970.1,383.5 L961.1,392.5" data-encoding="seed-point" data-seed="20260801" data-value="0" fill="none" stroke="#E69F00" stroke-width="3"/><circle cx="965.6" cy="412.0" r="4.5" data-encoding="seed-point" data-seed="1234" data-value="0" fill="#E69F00" stroke="#07111f" stroke-width="1.5"/><polygon points="965.6,407.0 970.6,412.0 965.6,417.0 960.6,412.0" data-encoding="seed-point" data-seed="20260727" data-value="0" fill="#E69F00" stroke="#07111f" stroke-width="1.5"/><path d="M961.1,407.5 L970.1,416.5 M970.1,407.5 L961.1,416.5" data-encoding="seed-point" data-seed="20260801" data-value="0" fill="none" stroke="#E69F00" stroke-width="3"/><circle cx="965.6" cy="388" r="8" fill="none" stroke="#E69F00" stroke-width="3" data-value="0"/><rect x="957.6" y="404.0" width="16" height="16" fill="none" stroke="#E69F00" stroke-width="3" data-value="0"/><text class="label" data-role="chart-label" x="48" y="466">standard OPD</text><text class="small" data-role="chart-label" x="48" y="490">A -1.4  (0.0 / 0.0 / -4.2)</text><text class="small" data-role="chart-label" x="48" y="512">U -2.8  (0.0 / 0.0 / -8.3)</text><line x1="370.0" y1="484" x2="1040.0" y2="484" stroke="#182a46"/><circle cx="965.6" cy="472.0" r="4.5" data-encoding="seed-point" data-seed="1234" data-value="0" fill="#D55E00" stroke="#07111f" stroke-width="1.5"/><polygon points="965.6,467.0 970.6,472.0 965.6,477.0 960.6,472.0" data-encoding="seed-point" data-seed="20260727" data-value="0" fill="#D55E00" stroke="#07111f" stroke-width="1.5"/><path d="M899.0,467.5 L908.0,476.5 M908.0,467.5 L899.0,476.5" data-encoding="seed-point" data-seed="20260801" data-value="-4.166666667" fill="none" stroke="#D55E00" stroke-width="3"/><circle cx="965.6" cy="496.0" r="4.5" data-encoding="seed-point" data-seed="1234" data-value="0" fill="#D55E00" stroke="#07111f" stroke-width="1.5"/><polygon points="965.6,491.0 970.6,496.0 965.6,501.0 960.6,496.0" data-encoding="seed-point" data-seed="20260727" data-value="0" fill="#D55E00" stroke="#07111f" stroke-width="1.5"/><path d="M837.0,491.5 L846.0,500.5 M846.0,491.5 L837.0,500.5" data-encoding="seed-point" data-seed="20260801" data-value="-8.333333333" fill="none" stroke="#D55E00" stroke-width="3"/><circle cx="944.9" cy="472" r="8" fill="none" stroke="#D55E00" stroke-width="3" data-value="-1.388888889"/><rect x="916.2" y="488.0" width="16" height="16" fill="none" stroke="#D55E00" stroke-width="3" data-value="-2.777777778"/><text class="label" data-role="chart-label" x="48" y="550">verifier-gated OPD</text><text class="small" data-role="chart-label" x="48" y="574">A -2.1  (0.0 / -6.2 / 0.0)</text><text class="small" data-role="chart-label" x="48" y="596">U -4.2  (0.0 / -12.5 / 0.0)</text><line x1="370.0" y1="568" x2="1040.0" y2="568" stroke="#182a46"/><circle cx="965.6" cy="556.0" r="4.5" data-encoding="seed-point" data-seed="1234" data-value="0" fill="#009E73" stroke="#07111f" stroke-width="1.5"/><polygon points="872.5,551.0 877.5,556.0 872.5,561.0 867.5,556.0" data-encoding="seed-point" data-seed="20260727" data-value="-6.25" fill="#009E73" stroke="#07111f" stroke-width="1.5"/><path d="M961.1,551.5 L970.1,560.5 M970.1,551.5 L961.1,560.5" data-encoding="seed-point" data-seed="20260801" data-value="0" fill="none" stroke="#009E73" stroke-width="3"/><circle cx="965.6" cy="580.0" r="4.5" data-encoding="seed-point" data-seed="1234" data-value="0" fill="#009E73" stroke="#07111f" stroke-width="1.5"/><polygon points="779.4,575.0 784.4,580.0 779.4,585.0 774.4,580.0" data-encoding="seed-point" data-seed="20260727" data-value="-12.5" fill="#009E73" stroke="#07111f" stroke-width="1.5"/><path d="M961.1,575.5 L970.1,584.5 M970.1,575.5 L961.1,584.5" data-encoding="seed-point" data-seed="20260801" data-value="0" fill="none" stroke="#009E73" stroke-width="3"/><circle cx="934.5" cy="556" r="8" fill="none" stroke="#009E73" stroke-width="3" data-value="-2.083333333"/><rect x="895.5" y="572.0" width="16" height="16" fill="none" stroke="#009E73" stroke-width="3" data-value="-4.166666667"/><circle cx="55" cy="682" r="7" fill="none" stroke="#edf4ff" stroke-width="3"/><text class="small" data-role="legend-label" x="72" y="688">A = alignment mean</text><rect x="266" y="675" width="14" height="14" fill="none" stroke="#edf4ff" stroke-width="3"/><text class="small" data-role="legend-label" x="290" y="688">U = retained tool utility mean</text><text class="small" data-role="legend-label" x="48" y="716">Seed shapes: ● 1234 · ◆ 20260727 · × 20260801. Every seed is drawn at its exact value.</text></svg>
