<svg xmlns="http://www.w3.org/2000/svg" width="390" height="784" viewBox="0 0 390 784" role="img" aria-labelledby="title desc"><title id="title">No continuation improved SFT</title><desc id="desc">Vertical mobile forest chart of alignment-score and retained-tool-utility percentage-point deltas for five continuation methods, with every seed printed.</desc><rect width="390" height="784" rx="16" fill="#060a14"/><rect x="12" y="12" width="366" height="760" rx="12" fill="#0a1222" stroke="#20304f"/><style>text{font-family:'DejaVu Sans','Segoe UI',sans-serif;fill:#edf4ff}.title{font-size:19px;font-weight:760}.sub{font-size:14px;fill:#aebbd2}.axis{font-size:14px;fill:#aebbd2}.label{font-size:16px;font-weight:700}.value{font-size:15px;font-weight:760}.small{font-size:14px;fill:#c3cfe2}.header{font-size:14px;font-weight:700;fill:#dce7f8}</style><text class="title" x="16" y="34">No continuation improved SFT</text><text class="sub" x="16" y="56">48 paired tasks · 3 seeds · zero = starting SFT</text><text class="header" data-role="axis-title" x="16" y="76">delta from same-seed SFT (pp)</text><text class="axis" x="20.0" y="96" text-anchor="middle">-40</text><text class="axis" x="175.6" y="96" text-anchor="middle">-20</text><text class="axis" x="331.1" y="96" text-anchor="middle">+0</text><rect x="12" y="118" width="366" height="112" rx="10" fill="#0d192d"/><rect x="20" y="128" width="10" height="16" rx="3" fill="#0072B2"/><text class="label" data-role="chart-label" x="38" y="142">continued SFT</text><line x1="20.0" y1="166" x2="370.0" y2="166" stroke="#182a46"/><line x1="331.1" y1="158" x2="331.1" y2="174" stroke="#f4f7fb" stroke-width="2" data-axis-domain="-40,5"/><circle cx="331.1" cy="166.0" r="4.5" data-encoding="seed-point" data-seed="1234" data-value="0" fill="#0072B2" stroke="#07111f" stroke-width="1.5"/><polygon points="331.1,161.0 336.1,166.0 331.1,171.0 326.1,166.0" data-encoding="seed-point" data-seed="20260727" data-value="0" fill="#0072B2" stroke="#07111f" stroke-width="1.5"/><path d="M197.0,161.5 L206.0,170.5 M206.0,161.5 L197.0,170.5" data-encoding="seed-point" data-seed="20260801" data-value="-16.66666667" fill="none" stroke="#0072B2" stroke-width="3"/><text class="small" data-role="chart-label" x="20" y="190">A -5.6  (0.0 / 0.0 / -16.7)</text><line x1="20.0" y1="200" x2="370.0" y2="200" stroke="#182a46"/><line x1="331.1" y1="192" x2="331.1" y2="208" stroke="#f4f7fb" stroke-width="2" data-axis-domain="-40,5"/><circle cx="331.1" cy="200.0" r="4.5" data-encoding="seed-point" data-seed="1234" data-value="0" fill="#0072B2" stroke="#07111f" stroke-width="1.5"/><polygon points="331.1,195.0 336.1,200.0 331.1,205.0 326.1,200.0" data-encoding="seed-point" data-seed="20260727" data-value="0" fill="#0072B2" stroke="#07111f" stroke-width="1.5"/><path d="M67.4,195.5 L76.4,204.5 M76.4,195.5 L67.4,204.5" data-encoding="seed-point" data-seed="20260801" data-value="-33.33333333" fill="none" stroke="#0072B2" stroke-width="3"/><text class="small" data-role="chart-label" x="20" y="224">U -11.1  (0.0 / 0.0 / -33.3)</text><rect x="12" y="240" width="366" height="112" rx="10" fill="#0a1426"/><rect x="20" y="250" width="10" height="16" rx="3" fill="#CC79A7"/><text class="label" data-role="chart-label" x="38" y="264">DPO</text><line x1="20.0" y1="288" x2="370.0" y2="288" stroke="#182a46"/><line x1="331.1" y1="280" x2="331.1" y2="296" stroke="#f4f7fb" stroke-width="2" data-axis-domain="-40,5"/><circle cx="331.1" cy="288.0" r="4.5" data-encoding="seed-point" data-seed="1234" data-value="0" fill="#CC79A7" stroke="#07111f" stroke-width="1.5"/><polygon points="331.1,283.0 336.1,288.0 331.1,293.0 326.1,288.0" data-encoding="seed-point" data-seed="20260727" data-value="0" fill="#CC79A7" stroke="#07111f" stroke-width="1.5"/><path d="M326.6,283.5 L335.6,292.5 M335.6,283.5 L326.6,292.5" data-encoding="seed-point" data-seed="20260801" data-value="0" fill="none" stroke="#CC79A7" stroke-width="3"/><text class="small" data-role="chart-label" x="20" y="312">A 0.0  (0.0 / 0.0 / 0.0)</text><line x1="20.0" y1="322" x2="370.0" y2="322" stroke="#182a46"/><line x1="331.1" y1="314" x2="331.1" y2="330" stroke="#f4f7fb" stroke-width="2" data-axis-domain="-40,5"/><circle cx="331.1" cy="322.0" r="4.5" data-encoding="seed-point" data-seed="1234" data-value="0" fill="#CC79A7" stroke="#07111f" stroke-width="1.5"/><polygon points="331.1,317.0 336.1,322.0 331.1,327.0 326.1,322.0" data-encoding="seed-point" data-seed="20260727" data-value="0" fill="#CC79A7" stroke="#07111f" stroke-width="1.5"/><path d="M326.6,317.5 L335.6,326.5 M335.6,317.5 L326.6,326.5" data-encoding="seed-point" data-seed="20260801" data-value="0" fill="none" stroke="#CC79A7" stroke-width="3"/><text class="small" data-role="chart-label" x="20" y="346">U 0.0  (0.0 / 0.0 / 0.0)</text><rect x="12" y="362" width="366" height="112" rx="10" fill="#0d192d"/><rect x="20" y="372" width="10" height="16" rx="3" fill="#E69F00"/><text class="label" data-role="chart-label" x="38" y="386">offline soft distillation</text><line x1="20.0" y1="410" x2="370.0" y2="410" stroke="#182a46"/><line x1="331.1" y1="402" x2="331.1" y2="418" stroke="#f4f7fb" stroke-width="2" data-axis-domain="-40,5"/><circle cx="331.1" cy="410.0" r="4.5" data-encoding="seed-point" data-seed="1234" data-value="0" fill="#E69F00" stroke="#07111f" stroke-width="1.5"/><polygon points="331.1,405.0 336.1,410.0 331.1,415.0 326.1,410.0" data-encoding="seed-point" data-seed="20260727" data-value="0" fill="#E69F00" stroke="#07111f" stroke-width="1.5"/><path d="M326.6,405.5 L335.6,414.5 M335.6,405.5 L326.6,414.5" data-encoding="seed-point" data-seed="20260801" data-value="0" fill="none" stroke="#E69F00" stroke-width="3"/><text class="small" data-role="chart-label" x="20" y="434">A 0.0  (0.0 / 0.0 / 0.0)</text><line x1="20.0" y1="444" x2="370.0" y2="444" stroke="#182a46"/><line x1="331.1" y1="436" x2="331.1" y2="452" stroke="#f4f7fb" stroke-width="2" data-axis-domain="-40,5"/><circle cx="331.1" cy="444.0" r="4.5" data-encoding="seed-point" data-seed="1234" data-value="0" fill="#E69F00" stroke="#07111f" stroke-width="1.5"/><polygon points="331.1,439.0 336.1,444.0 331.1,449.0 326.1,444.0" data-encoding="seed-point" data-seed="20260727" data-value="0" fill="#E69F00" stroke="#07111f" stroke-width="1.5"/><path d="M326.6,439.5 L335.6,448.5 M335.6,439.5 L326.6,448.5" data-encoding="seed-point" data-seed="20260801" data-value="0" fill="none" stroke="#E69F00" stroke-width="3"/><text class="small" data-role="chart-label" x="20" y="468">U 0.0  (0.0 / 0.0 / 0.0)</text><rect x="12" y="484" width="366" height="112" rx="10" fill="#0a1426"/><rect x="20" y="494" width="10" height="16" rx="3" fill="#D55E00"/><text class="label" data-role="chart-label" x="38" y="508">standard OPD</text><line x1="20.0" y1="532" x2="370.0" y2="532" stroke="#182a46"/><line x1="331.1" y1="524" x2="331.1" y2="540" stroke="#f4f7fb" stroke-width="2" data-axis-domain="-40,5"/><circle cx="331.1" cy="532.0" r="4.5" data-encoding="seed-point" data-seed="1234" data-value="0" fill="#D55E00" stroke="#07111f" stroke-width="1.5"/><polygon points="331.1,527.0 336.1,532.0 331.1,537.0 326.1,532.0" data-encoding="seed-point" data-seed="20260727" data-value="0" fill="#D55E00" stroke="#07111f" stroke-width="1.5"/><path d="M294.2,527.5 L303.2,536.5 M303.2,527.5 L294.2,536.5" data-encoding="seed-point" data-seed="20260801" data-value="-4.166666667" fill="none" stroke="#D55E00" stroke-width="3"/><text class="small" data-role="chart-label" x="20" y="556">A -1.4  (0.0 / 0.0 / -4.2)</text><line x1="20.0" y1="566" x2="370.0" y2="566" stroke="#182a46"/><line x1="331.1" y1="558" x2="331.1" y2="574" stroke="#f4f7fb" stroke-width="2" data-axis-domain="-40,5"/><circle cx="331.1" cy="566.0" r="4.5" data-encoding="seed-point" data-seed="1234" data-value="0" fill="#D55E00" stroke="#07111f" stroke-width="1.5"/><polygon points="331.1,561.0 336.1,566.0 331.1,571.0 326.1,566.0" data-encoding="seed-point" data-seed="20260727" data-value="0" fill="#D55E00" stroke="#07111f" stroke-width="1.5"/><path d="M261.8,561.5 L270.8,570.5 M270.8,561.5 L261.8,570.5" data-encoding="seed-point" data-seed="20260801" data-value="-8.333333333" fill="none" stroke="#D55E00" stroke-width="3"/><text class="small" data-role="chart-label" x="20" y="590">U -2.8  (0.0 / 0.0 / -8.3)</text><rect x="12" y="606" width="366" height="112" rx="10" fill="#0d192d"/><rect x="20" y="616" width="10" height="16" rx="3" fill="#009E73"/><text class="label" data-role="chart-label" x="38" y="630">verifier-gated OPD</text><line x1="20.0" y1="654" x2="370.0" y2="654" stroke="#182a46"/><line x1="331.1" y1="646" x2="331.1" y2="662" stroke="#f4f7fb" stroke-width="2" data-axis-domain="-40,5"/><circle cx="331.1" cy="654.0" r="4.5" data-encoding="seed-point" data-seed="1234" data-value="0" fill="#009E73" stroke="#07111f" stroke-width="1.5"/><polygon points="282.5,649.0 287.5,654.0 282.5,659.0 277.5,654.0" data-encoding="seed-point" data-seed="20260727" data-value="-6.25" fill="#009E73" stroke="#07111f" stroke-width="1.5"/><path d="M326.6,649.5 L335.6,658.5 M335.6,649.5 L326.6,658.5" data-encoding="seed-point" data-seed="20260801" data-value="0" fill="none" stroke="#009E73" stroke-width="3"/><text class="small" data-role="chart-label" x="20" y="678">A -2.1  (0.0 / -6.2 / 0.0)</text><line x1="20.0" y1="688" x2="370.0" y2="688" stroke="#182a46"/><line x1="331.1" y1="680" x2="331.1" y2="696" stroke="#f4f7fb" stroke-width="2" data-axis-domain="-40,5"/><circle cx="331.1" cy="688.0" r="4.5" data-encoding="seed-point" data-seed="1234" data-value="0" fill="#009E73" stroke="#07111f" stroke-width="1.5"/><polygon points="233.9,683.0 238.9,688.0 233.9,693.0 228.9,688.0" data-encoding="seed-point" data-seed="20260727" data-value="-12.5" fill="#009E73" stroke="#07111f" stroke-width="1.5"/><path d="M326.6,683.5 L335.6,692.5 M335.6,683.5 L326.6,692.5" data-encoding="seed-point" data-seed="20260801" data-value="0" fill="none" stroke="#009E73" stroke-width="3"/><text class="small" data-role="chart-label" x="20" y="712">U -4.2  (0.0 / -12.5 / 0.0)</text><text class="small" data-role="legend-label" x="16" y="744">A = alignment · U = retained tool utility</text><text class="small" data-role="legend-label" x="16" y="766">Seeds ● 1234 · ◆ 20260727 · × 20260801</text></svg>
