<svg xmlns="http://www.w3.org/2000/svg" width="390" height="1048" viewBox="0 0 390 1048" role="img" aria-labelledby="title desc"><title id="title">miniVERL → verl bridge</title><desc id="desc">Vertical mobile diagram with local runtime, portable bundle and pinned upstream smoke as verified layers, followed by Distributed execution: NOT TESTED.</desc><rect width="390" height="1048" rx="22" fill="#060a14"/><style>text{font-family:'DejaVu Sans','Segoe UI',sans-serif;fill:#edf4ff}.title{font-size:30px;font-weight:760}.sub{font-size:17px;fill:#aebbd2}.layer{font-size:20px;font-weight:760}.body{font-size:16px;fill:#c2cee1}.role{font-size:15px;font-weight:700}.status{font-size:22px;font-weight:800}.foot{font-size:15px;fill:#9fb0ca}</style><text class="title" data-role="diagram-label" x="20" y="46" style="font-size:24px">miniVERL → verl bridge</text><text class="sub" data-role="diagram-label" x="20" y="75" style="font-size:15px">v0.8.0 · 7aed6b23</text><text class="sub" data-role="diagram-label" x="20" y="98" style="font-size:14px">independent project; no endorsement</text><rect x="20" y="122" width="350" height="242" rx="16" fill="#0d1d34" stroke="#2f6fa2" stroke-width="2"/><text class="layer" data-role="diagram-label" x="40" y="154">1 · miniVERL local runtime</text><text class="body" data-role="diagram-label" x="40" y="181" style="font-size:14px">single-GPU training + evaluation</text><rect x="40" y="199" width="310" height="32" rx="8" fill="#12304d"/><text class="role" data-role="diagram-label" x="55" y="220">teacher role · targets</text><rect x="40" y="239" width="310" height="32" rx="8" fill="#2d2343"/><text class="role" data-role="diagram-label" x="55" y="260">reference role · DPO</text><rect x="40" y="279" width="310" height="32" rx="8" fill="#16372f"/><text class="role" data-role="diagram-label" x="55" y="300">reward role · verifier</text><rect x="40" y="319" width="310" height="32" rx="8" fill="#352d17"/><text class="role" data-role="diagram-label" x="55" y="340">student · local updates</text><line x1="195" y1="364" x2="195" y2="393" stroke="#80c7ff" stroke-width="4"/><polygon points="186,386 204,386 195,399" fill="#80c7ff"/><rect x="20" y="399" width="350" height="226" rx="16" fill="#101f38" stroke="#4e87b7" stroke-width="2"/><text class="layer" data-role="diagram-label" x="40" y="433">2 · portable artifact bundle</text><text class="body" data-role="diagram-label" x="40" y="460" style="font-size:14px">standard, reviewable interchange</text><rect x="40" y="482" width="145" height="40" rx="9" fill="#16314f"/><text class="role" data-role="diagram-label" x="75" y="507">PEFT</text><rect x="205" y="482" width="145" height="40" rx="9" fill="#16314f"/><text class="role" data-role="diagram-label" x="226" y="507">safetensors</text><rect x="40" y="536" width="145" height="40" rx="9" fill="#16314f"/><text class="role" data-role="diagram-label" x="75" y="561">Parquet</text><rect x="205" y="536" width="145" height="40" rx="9" fill="#16314f"/><text class="role" data-role="diagram-label" x="225" y="561">config</text><rect x="40" y="590" width="310" height="24" rx="7" fill="#16314f"/><text class="role" data-role="diagram-label" x="100" y="608" style="font-size:13px">typed provenance</text><line x1="195" y1="625" x2="195" y2="654" stroke="#80c7ff" stroke-width="4"/><polygon points="186,647 204,647 195,660" fill="#80c7ff"/><rect x="20" y="660" width="350" height="154" rx="16" fill="#10283b" stroke="#3c9f9a" stroke-width="2"/><text class="layer" data-role="diagram-label" x="40" y="696">3 · pinned upstream smoke</text><text class="body" data-role="diagram-label" x="40" y="725" style="font-size:14px">verl v0.8.0 at 7aed6b23</text><text class="body" data-role="diagram-label" x="40" y="751" style="font-size:14px">config parse + artifact load checks</text><text class="body" data-role="diagram-label" x="40" y="781" style="font-size:13px">verified: documented profile subset</text><line x1="195" y1="814" x2="195" y2="847" stroke="#f29d65" stroke-width="4" stroke-dasharray="10 8"/><polygon points="186,840 204,840 195,853" fill="#f29d65"/><rect x="20" y="853" width="350" height="174" rx="16" fill="#321b20" stroke="#ef835f" stroke-width="3"/><text class="status" data-role="diagram-label" x="195" y="892" text-anchor="middle" style="font-size:19px">Distributed execution:</text><text class="status" data-role="diagram-label" x="195" y="935" text-anchor="middle" style="font-size:24px">NOT TESTED</text><text class="body" data-role="diagram-label" x="195" y="968" text-anchor="middle" style="font-size:13px">No Ray / FSDP / vLLM job ran</text><text class="body" data-role="diagram-label" x="195" y="992" text-anchor="middle" style="font-size:13px">No OPD-to-PPO semantic parity</text><text class="foot" data-role="diagram-label" x="195" y="1017" text-anchor="middle" style="font-size:13px">unverified execution layer</text></svg>
